# CAD Exchanger 3.10.2 (cadexchanger.com)
# Object Count: 1
mtllib LightCylinder.mtl
g Part3
v 0.000000 0.300000 -0.045000
v 0.000000 0.000000 -0.045000
v 0.000000 0.000000 0.045000
v 0.000000 0.300000 0.045000
v 0.000000 0.400000 0.050000
v 0.000000 0.400000 -0.050000
v 0.000000 0.000000 0.050000
v 0.000000 0.000000 -0.050000
v -0.007814 0.000000 0.044316
v -0.015391 0.000000 0.042286
v -0.022500 0.000000 0.038971
v -0.028925 0.000000 0.034472
v -0.034472 0.000000 0.028925
v -0.038971 0.000000 0.022500
v -0.042286 0.000000 0.015391
v -0.044316 0.000000 0.007814
v -0.045000 0.000000 0.000000
v -0.044316 0.000000 -0.007814
v -0.042286 0.000000 -0.015391
v -0.038971 0.000000 -0.022500
v -0.034472 0.000000 -0.028925
v -0.028925 0.000000 -0.034472
v -0.022500 0.000000 -0.038971
v -0.015391 0.000000 -0.042286
v -0.007814 0.000000 -0.044316
v -0.007814 0.300000 0.044316
v -0.015391 0.300000 0.042286
v -0.022500 0.300000 0.038971
v -0.028925 0.300000 0.034472
v -0.034472 0.300000 0.028925
v -0.038971 0.300000 0.022500
v -0.042286 0.300000 0.015391
v -0.044316 0.300000 0.007814
v -0.045000 0.300000 0.000000
v -0.044316 0.300000 -0.007814
v -0.042286 0.300000 -0.015391
v -0.038971 0.300000 -0.022500
v -0.034472 0.300000 -0.028925
v -0.028925 0.300000 -0.034472
v -0.022500 0.300000 -0.038971
v -0.015391 0.300000 -0.042286
v -0.007814 0.300000 -0.044316
v 0.008682 0.400000 0.049240
v 0.017101 0.400000 0.046985
v 0.025000 0.400000 0.043301
v 0.032139 0.400000 0.038302
v 0.038302 0.400000 0.032139
v 0.043301 0.400000 0.025000
v 0.046985 0.400000 0.017101
v 0.049240 0.400000 0.008682
v 0.050000 0.400000 0.000000
v 0.049240 0.400000 -0.008682
v 0.046985 0.400000 -0.017101
v 0.043301 0.400000 -0.025000
v 0.038302 0.400000 -0.032139
v 0.032139 0.400000 -0.038302
v 0.025000 0.400000 -0.043301
v 0.017101 0.400000 -0.046985
v 0.008682 0.400000 -0.049240
v 0.008682 0.000000 0.049240
v 0.017101 0.000000 0.046985
v 0.025000 0.000000 0.043301
v 0.032139 0.000000 0.038302
v 0.038302 0.000000 0.032139
v 0.043301 0.000000 0.025000
v 0.046985 0.000000 0.017101
v 0.049240 0.000000 0.008682
v 0.050000 0.000000 0.000000
v 0.049240 0.000000 -0.008682
v 0.046985 0.000000 -0.017101
v 0.043301 0.000000 -0.025000
v 0.038302 0.000000 -0.032139
v 0.032139 0.000000 -0.038302
v 0.025000 0.000000 -0.043301
v 0.017101 0.000000 -0.046985
v 0.008682 0.000000 -0.049240
v -0.008682 0.400000 -0.049240
v -0.017101 0.400000 -0.046985
v -0.025000 0.400000 -0.043301
v -0.032139 0.400000 -0.038302
v -0.038302 0.400000 -0.032139
v -0.043301 0.400000 -0.025000
v -0.046985 0.400000 -0.017101
v -0.049240 0.400000 -0.008682
v -0.050000 0.400000 -0.000000
v -0.049240 0.400000 0.008682
v -0.046985 0.400000 0.017101
v -0.043301 0.400000 0.025000
v -0.038302 0.400000 0.032139
v -0.032139 0.400000 0.038302
v -0.025000 0.400000 0.043301
v -0.017101 0.400000 0.046985
v -0.008682 0.400000 0.049240
v -0.008682 0.000000 -0.049240
v -0.017101 0.000000 -0.046985
v -0.025000 0.000000 -0.043301
v -0.032139 0.000000 -0.038302
v -0.038302 0.000000 -0.032139
v -0.043301 0.000000 -0.025000
v -0.046985 0.000000 -0.017101
v -0.049240 0.000000 -0.008682
v -0.050000 0.000000 -0.000000
v -0.049240 0.000000 0.008682
v -0.046985 0.000000 0.017101
v -0.043301 0.000000 0.025000
v -0.038302 0.000000 0.032139
v -0.032139 0.000000 0.038302
v -0.025000 0.000000 0.043301
v -0.017101 0.000000 0.046985
v -0.008682 0.000000 0.049240
v 0.007814 0.000000 -0.044316
v 0.015391 0.000000 -0.042286
v 0.022500 0.000000 -0.038971
v 0.028925 0.000000 -0.034472
v 0.034472 0.000000 -0.028925
v 0.038971 0.000000 -0.022500
v 0.042286 0.000000 -0.015391
v 0.044316 0.000000 -0.007814
v 0.045000 0.000000 -0.000000
v 0.044316 0.000000 0.007814
v 0.042286 0.000000 0.015391
v 0.038971 0.000000 0.022500
v 0.034472 0.000000 0.028925
v 0.028925 0.000000 0.034472
v 0.022500 0.000000 0.038971
v 0.015391 0.000000 0.042286
v 0.007814 0.000000 0.044316
v 0.007814 0.300000 -0.044316
v 0.015391 0.300000 -0.042286
v 0.022500 0.300000 -0.038971
v 0.028925 0.300000 -0.034472
v 0.034472 0.300000 -0.028925
v 0.038971 0.300000 -0.022500
v 0.042286 0.300000 -0.015391
v 0.044316 0.300000 -0.007814
v 0.045000 0.300000 -0.000000
v 0.044316 0.300000 0.007814
v 0.042286 0.300000 0.015391
v 0.038971 0.300000 0.022500
v 0.034472 0.300000 0.028925
v 0.028925 0.300000 0.034472
v 0.022500 0.300000 0.038971
v 0.015391 0.300000 0.042286
v 0.007814 0.300000 0.044316
vn 0.000000 -0.000000 1.000000
vn 0.000000 -0.000000 1.000000
vn 0.173648 -0.000000 0.984808
vn 0.342020 -0.000000 0.939693
vn 0.500000 -0.000000 0.866025
vn 0.642788 -0.000000 0.766044
vn 0.766044 -0.000000 0.642788
vn 0.866025 -0.000000 0.500000
vn 0.939693 -0.000000 0.342020
vn 0.984808 -0.000000 0.173648
vn 1.000000 -0.000000 -0.000000
vn 0.984808 -0.000000 -0.173648
vn 0.939693 -0.000000 -0.342020
vn 0.866025 -0.000000 -0.500000
vn 0.766044 -0.000000 -0.642788
vn 0.642788 -0.000000 -0.766044
vn 0.500000 -0.000000 -0.866025
vn 0.342020 -0.000000 -0.939693
vn 0.173648 -0.000000 -0.984808
vn -0.000000 -0.000000 -1.000000
vn -0.000000 -0.000000 -1.000000
vn 0.173648 -0.000000 -0.984808
vn 0.342020 -0.000000 -0.939693
vn 0.500000 -0.000000 -0.866025
vn 0.642788 -0.000000 -0.766044
vn 0.766044 -0.000000 -0.642788
vn 0.866025 -0.000000 -0.500000
vn 0.939693 -0.000000 -0.342020
vn 0.984808 -0.000000 -0.173648
vn 1.000000 -0.000000 -0.000000
vn 0.984808 -0.000000 0.173648
vn 0.939693 -0.000000 0.342020
vn 0.866025 -0.000000 0.500000
vn 0.766044 -0.000000 0.642788
vn 0.642788 -0.000000 0.766044
vn 0.500000 -0.000000 0.866025
vn 0.342020 -0.000000 0.939693
vn 0.173648 -0.000000 0.984808
vn 0.000000 0.000000 -1.000000
vn 0.173648 0.000000 -0.984808
vn 0.342020 0.000000 -0.939693
vn 0.500000 0.000000 -0.866025
vn 0.642788 0.000000 -0.766044
vn 0.766044 0.000000 -0.642788
vn 0.866025 0.000000 -0.500000
vn 0.939693 0.000000 -0.342020
vn 0.984808 0.000000 -0.173648
vn 1.000000 0.000000 -0.000000
vn 0.984808 0.000000 0.173648
vn 0.939693 0.000000 0.342020
vn 0.866025 0.000000 0.500000
vn 0.766044 0.000000 0.642788
vn 0.642788 0.000000 0.766044
vn 0.500000 0.000000 0.866025
vn 0.342020 0.000000 0.939693
vn 0.173648 0.000000 0.984808
vn 0.000000 0.000000 1.000000
vn 0.000000 0.000000 1.000000
vn 0.173648 0.000000 0.984808
vn 0.342020 0.000000 0.939693
vn 0.500000 0.000000 0.866025
vn 0.642788 0.000000 0.766044
vn 0.766044 0.000000 0.642788
vn 0.866025 0.000000 0.500000
vn 0.939693 0.000000 0.342020
vn 0.984808 0.000000 0.173648
vn 1.000000 0.000000 -0.000000
vn 0.984808 0.000000 -0.173648
vn 0.939693 0.000000 -0.342020
vn 0.866025 0.000000 -0.500000
vn 0.766044 0.000000 -0.642788
vn 0.642788 0.000000 -0.766044
vn 0.500000 0.000000 -0.866025
vn 0.342020 0.000000 -0.939693
vn 0.173648 0.000000 -0.984808
vn 0.000000 0.000000 -1.000000
vn 0.000000 0.000000 1.000000
vn 0.000000 0.000000 1.000000
vn -0.173648 0.000000 0.984808
vn -0.342020 0.000000 0.939693
vn -0.500000 0.000000 0.866025
vn -0.642788 0.000000 0.766044
vn -0.766044 0.000000 0.642788
vn -0.866025 0.000000 0.500000
vn -0.939693 0.000000 0.342020
vn -0.984808 0.000000 0.173648
vn -1.000000 0.000000 0.000000
vn -0.984808 0.000000 -0.173648
vn -0.939693 0.000000 -0.342020
vn -0.866025 0.000000 -0.500000
vn -0.766044 0.000000 -0.642788
vn -0.642788 0.000000 -0.766044
vn -0.500000 0.000000 -0.866025
vn -0.342020 0.000000 -0.939693
vn -0.173648 0.000000 -0.984808
vn -0.000000 0.000000 -1.000000
vn -0.000000 0.000000 -1.000000
vn -0.173648 0.000000 -0.984808
vn -0.342020 0.000000 -0.939693
vn -0.500000 0.000000 -0.866025
vn -0.642788 0.000000 -0.766044
vn -0.766044 0.000000 -0.642788
vn -0.866025 0.000000 -0.500000
vn -0.939693 0.000000 -0.342020
vn -0.984808 0.000000 -0.173648
vn -1.000000 0.000000 0.000000
vn -0.984808 0.000000 0.173648
vn -0.939693 0.000000 0.342020
vn -0.866025 0.000000 0.500000
vn -0.766044 0.000000 0.642788
vn -0.642788 0.000000 0.766044
vn -0.500000 0.000000 0.866025
vn -0.342020 0.000000 0.939693
vn -0.173648 0.000000 0.984808
vn 0.000000 1.000000 0.000000
vn 0.000000 1.000000 0.000000
vn 0.000000 1.000000 0.000000
vn 0.000000 1.000000 0.000000
vn 0.000000 1.000000 0.000000
vn 0.000000 1.000000 0.000000
vn 0.000000 1.000000 0.000000
vn 0.000000 1.000000 0.000000
vn 0.000000 1.000000 0.000000
vn 0.000000 1.000000 0.000000
vn 0.000000 1.000000 0.000000
vn 0.000000 1.000000 0.000000
vn 0.000000 1.000000 0.000000
vn 0.000000 1.000000 0.000000
vn 0.000000 1.000000 0.000000
vn 0.000000 1.000000 0.000000
vn 0.000000 1.000000 0.000000
vn 0.000000 1.000000 0.000000
vn 0.000000 1.000000 0.000000
vn 0.000000 1.000000 0.000000
vn 0.000000 1.000000 0.000000
vn 0.000000 1.000000 0.000000
vn 0.000000 1.000000 0.000000
vn 0.000000 1.000000 0.000000
vn 0.000000 1.000000 0.000000
vn 0.000000 1.000000 0.000000
vn 0.000000 1.000000 0.000000
vn 0.000000 1.000000 0.000000
vn 0.000000 1.000000 0.000000
vn 0.000000 1.000000 0.000000
vn 0.000000 1.000000 0.000000
vn 0.000000 1.000000 0.000000
vn 0.000000 1.000000 0.000000
vn 0.000000 1.000000 0.000000
vn 0.000000 1.000000 0.000000
vn 0.000000 1.000000 0.000000
vn -0.000000 -1.000000 -0.000000
vn -0.000000 -1.000000 -0.000000
vn -0.000000 -1.000000 -0.000000
vn -0.000000 -1.000000 -0.000000
vn -0.000000 -1.000000 -0.000000
vn -0.000000 -1.000000 -0.000000
vn -0.000000 -1.000000 -0.000000
vn -0.000000 -1.000000 -0.000000
vn -0.000000 -1.000000 -0.000000
vn -0.000000 -1.000000 -0.000000
vn -0.000000 -1.000000 -0.000000
vn -0.000000 -1.000000 -0.000000
vn -0.000000 -1.000000 -0.000000
vn -0.000000 -1.000000 -0.000000
vn -0.000000 -1.000000 -0.000000
vn -0.000000 -1.000000 -0.000000
vn -0.000000 -1.000000 -0.000000
vn -0.000000 -1.000000 -0.000000
vn -0.000000 -1.000000 -0.000000
vn -0.000000 -1.000000 -0.000000
vn -0.000000 -1.000000 -0.000000
vn -0.000000 -1.000000 -0.000000
vn -0.000000 -1.000000 -0.000000
vn -0.000000 -1.000000 -0.000000
vn -0.000000 -1.000000 -0.000000
vn -0.000000 -1.000000 -0.000000
vn -0.000000 -1.000000 -0.000000
vn -0.000000 -1.000000 -0.000000
vn -0.000000 -1.000000 -0.000000
vn -0.000000 -1.000000 -0.000000
vn -0.000000 -1.000000 -0.000000
vn -0.000000 -1.000000 -0.000000
vn -0.000000 -1.000000 -0.000000
vn -0.000000 -1.000000 -0.000000
vn -0.000000 -1.000000 -0.000000
vn -0.000000 -1.000000 -0.000000
vn -0.000000 -1.000000 -0.000000
vn -0.000000 -1.000000 -0.000000
vn -0.000000 -1.000000 -0.000000
vn -0.000000 -1.000000 -0.000000
vn -0.000000 -1.000000 -0.000000
vn -0.000000 -1.000000 -0.000000
vn -0.000000 -1.000000 -0.000000
vn -0.000000 -1.000000 -0.000000
vn -0.000000 -1.000000 -0.000000
vn -0.000000 -1.000000 -0.000000
vn -0.000000 -1.000000 -0.000000
vn -0.000000 -1.000000 -0.000000
vn -0.000000 -1.000000 -0.000000
vn -0.000000 -1.000000 -0.000000
vn -0.000000 -1.000000 -0.000000
vn -0.000000 -1.000000 -0.000000
vn -0.000000 -1.000000 -0.000000
vn -0.000000 -1.000000 -0.000000
vn -0.000000 -1.000000 -0.000000
vn -0.000000 -1.000000 -0.000000
vn -0.000000 -1.000000 -0.000000
vn -0.000000 -1.000000 -0.000000
vn -0.000000 -1.000000 -0.000000
vn -0.000000 -1.000000 -0.000000
vn -0.000000 -1.000000 -0.000000
vn -0.000000 -1.000000 -0.000000
vn -0.000000 -1.000000 -0.000000
vn -0.000000 -1.000000 -0.000000
vn -0.000000 -1.000000 -0.000000
vn -0.000000 -1.000000 -0.000000
vn -0.000000 -1.000000 -0.000000
vn -0.000000 -1.000000 -0.000000
vn -0.000000 -1.000000 -0.000000
vn -0.000000 -1.000000 -0.000000
vn -0.000000 -1.000000 -0.000000
vn -0.000000 -1.000000 -0.000000
vn -0.000000 -0.000000 -1.000000
vn -0.173648 -0.000000 -0.984808
vn -0.342020 -0.000000 -0.939693
vn -0.500000 -0.000000 -0.866025
vn -0.642788 -0.000000 -0.766044
vn -0.766044 -0.000000 -0.642788
vn -0.866025 -0.000000 -0.500000
vn -0.939693 -0.000000 -0.342020
vn -0.984808 -0.000000 -0.173648
vn -1.000000 -0.000000 0.000000
vn -0.984808 -0.000000 0.173648
vn -0.939693 -0.000000 0.342020
vn -0.866025 -0.000000 0.500000
vn -0.766044 -0.000000 0.642788
vn -0.642788 -0.000000 0.766044
vn -0.500000 -0.000000 0.866025
vn -0.342020 -0.000000 0.939693
vn -0.173648 -0.000000 0.984808
vn -0.000000 -0.000000 1.000000
vn -0.000000 -0.000000 1.000000
vn -0.173648 -0.000000 0.984808
vn -0.342020 -0.000000 0.939693
vn -0.500000 -0.000000 0.866025
vn -0.642788 -0.000000 0.766044
vn -0.766044 -0.000000 0.642788
vn -0.866025 -0.000000 0.500000
vn -0.939693 -0.000000 0.342020
vn -0.984808 -0.000000 0.173648
vn -1.000000 -0.000000 0.000000
vn -0.984808 -0.000000 -0.173648
vn -0.939693 -0.000000 -0.342020
vn -0.866025 -0.000000 -0.500000
vn -0.766044 -0.000000 -0.642788
vn -0.642788 -0.000000 -0.766044
vn -0.500000 -0.000000 -0.866025
vn -0.342020 -0.000000 -0.939693
vn -0.173648 -0.000000 -0.984808
vn -0.000000 -0.000000 -1.000000
vn 0.000000 -1.000000 0.000000
vn 0.000000 -1.000000 0.000000
vn 0.000000 -1.000000 0.000000
vn 0.000000 -1.000000 0.000000
vn 0.000000 -1.000000 0.000000
vn 0.000000 -1.000000 0.000000
vn 0.000000 -1.000000 0.000000
vn 0.000000 -1.000000 0.000000
vn 0.000000 -1.000000 0.000000
vn 0.000000 -1.000000 0.000000
vn 0.000000 -1.000000 0.000000
vn 0.000000 -1.000000 0.000000
vn 0.000000 -1.000000 0.000000
vn 0.000000 -1.000000 0.000000
vn 0.000000 -1.000000 0.000000
vn 0.000000 -1.000000 0.000000
vn 0.000000 -1.000000 0.000000
vn 0.000000 -1.000000 0.000000
vn 0.000000 -1.000000 0.000000
vn 0.000000 -1.000000 0.000000
vn 0.000000 -1.000000 0.000000
vn 0.000000 -1.000000 0.000000
vn 0.000000 -1.000000 0.000000
vn 0.000000 -1.000000 0.000000
vn 0.000000 -1.000000 0.000000
vn 0.000000 -1.000000 0.000000
vn 0.000000 -1.000000 0.000000
vn 0.000000 -1.000000 0.000000
vn 0.000000 -1.000000 0.000000
vn 0.000000 -1.000000 0.000000
vn 0.000000 -1.000000 0.000000
vn 0.000000 -1.000000 0.000000
vn 0.000000 -1.000000 0.000000
vn 0.000000 -1.000000 0.000000
vn 0.000000 -1.000000 0.000000
vn 0.000000 -1.000000 0.000000
usemtl Material_1
f 25//3 2//2 1//1
f 42//38 25//3 1//1
f 41//37 24//4 25//3
f 40//36 23//5 24//4
f 39//35 22//6 23//5
f 38//34 21//7 22//6
f 37//33 20//8 21//7
f 36//32 19//9 20//8
f 35//31 18//10 19//9
f 34//30 17//11 18//10
f 33//29 16//12 17//11
f 32//28 15//13 16//12
f 31//27 14//14 15//13
f 30//26 13//15 14//14
f 29//25 12//16 13//15
f 28//24 11//17 12//16
f 27//23 10//18 11//17
f 26//22 9//19 10//18
f 4//21 3//20 9//19
f 26//22 4//21 9//19
f 27//23 26//22 10//18
f 28//24 27//23 11//17
f 29//25 28//24 12//16
f 30//26 29//25 13//15
f 31//27 30//26 14//14
f 32//28 31//27 15//13
f 33//29 32//28 16//12
f 34//30 33//29 17//11
f 35//31 34//30 18//10
f 36//32 35//31 19//9
f 37//33 36//32 20//8
f 38//34 37//33 21//7
f 39//35 38//34 22//6
f 40//36 39//35 23//5
f 41//37 40//36 24//4
f 42//38 41//37 25//3
f 76//75 6//39 59//40
f 75//74 59//40 58//41
f 74//73 58//41 57//42
f 73//72 57//42 56//43
f 72//71 56//43 55//44
f 71//70 55//44 54//45
f 70//69 54//45 53//46
f 69//68 53//46 52//47
f 68//67 52//47 51//48
f 67//66 51//48 50//49
f 66//65 50//49 49//50
f 65//64 49//50 48//51
f 64//63 48//51 47//52
f 63//62 47//52 46//53
f 62//61 46//53 45//54
f 61//60 45//54 44//55
f 60//59 44//55 43//56
f 7//58 43//56 5//57
f 60//59 43//56 7//58
f 61//60 44//55 60//59
f 62//61 45//54 61//60
f 63//62 46//53 62//61
f 64//63 47//52 63//62
f 65//64 48//51 64//63
f 66//65 49//50 65//64
f 67//66 50//49 66//65
f 68//67 51//48 67//66
f 69//68 52//47 68//67
f 70//69 53//46 69//68
f 71//70 54//45 70//69
f 72//71 55//44 71//70
f 73//72 56//43 72//71
f 74//73 57//42 73//72
f 75//74 58//41 74//73
f 76//75 59//40 75//74
f 8//76 6//39 76//75
f 93//79 7//77 5//78
f 110//114 93//79 109//113
f 108//112 91//81 107//111
f 106//110 89//83 105//109
f 104//108 87//85 103//107
f 102//106 85//87 101//105
f 100//104 83//89 99//103
f 98//102 81//91 97//101
f 96//100 79//93 95//99
f 94//98 77//95 8//97
f 101//105 85//87 84//88
f 100//104 84//88 83//89
f 99//103 83//89 82//90
f 98//102 82//90 81//91
f 97//101 81//91 80//92
f 96//100 80//92 79//93
f 95//99 79//93 78//94
f 6//96 8//97 77//95
f 94//98 78//94 77//95
f 95//99 78//94 94//98
f 102//106 86//86 85//87
f 97//101 80//92 96//100
f 103//107 87//85 86//86
f 99//103 82//90 98//102
f 104//108 88//84 87//85
f 101//105 84//88 100//104
f 105//109 89//83 88//84
f 103//107 86//86 102//106
f 106//110 90//82 89//83
f 105//109 88//84 104//108
f 107//111 91//81 90//82
f 107//111 90//82 106//110
f 108//112 92//80 91//81
f 109//113 92//80 108//112
f 109//113 93//79 92//80
f 110//114 7//77 93//79
f 78//117 6//115 77//116
f 79//118 6//115 78//117
f 80//119 6//115 79//118
f 81//120 6//115 80//119
f 82//121 6//115 81//120
f 83//122 6//115 82//121
f 84//123 6//115 83//122
f 85//124 6//115 84//123
f 86//125 6//115 85//124
f 87//126 6//115 86//125
f 88//127 6//115 87//126
f 89//128 6//115 88//127
f 90//129 6//115 89//128
f 91//130 6//115 90//129
f 92//131 6//115 91//130
f 93//132 6//115 92//131
f 5//133 6//115 93//132
f 43//134 6//115 5//133
f 44//135 6//115 43//134
f 45//136 6//115 44//135
f 46//137 6//115 45//136
f 47//138 6//115 46//137
f 48//139 6//115 47//138
f 49//140 6//115 48//139
f 50//141 6//115 49//140
f 51//142 6//115 50//141
f 52//143 6//115 51//142
f 53//144 6//115 52//143
f 54//145 6//115 53//144
f 55//146 6//115 54//145
f 56//147 6//115 55//146
f 57//148 6//115 56//147
f 58//149 6//115 57//148
f 59//150 6//115 58//149
f 9//152 3//151 7//187
f 110//222 9//152 7//187
f 109//221 10//153 9//152
f 16//159 15//158 103//215
f 101//213 17//160 102//214
f 65//193 122//181 121//180
f 63//191 124//183 123//182
f 7//187 3//151 127//186
f 108//220 107//219 11//154
f 60//188 127//186 126//185
f 61//189 126//185 125//184
f 60//188 7//187 127//186
f 62//190 125//184 124//183
f 61//189 60//188 126//185
f 64//192 123//182 122//181
f 62//190 61//189 125//184
f 63//191 62//190 124//183
f 64//192 63//191 123//182
f 66//194 121//180 120//179
f 65//193 64//192 122//181
f 67//195 120//179 119//178
f 66//194 65//193 121//180
f 68//196 119//178 118//177
f 67//195 66//194 120//179
f 69//197 118//177 117//176
f 68//196 67//195 119//178
f 70//198 117//176 116//175
f 69//197 68//196 118//177
f 71//199 116//175 115//174
f 70//198 69//197 117//176
f 72//200 115//174 114//173
f 71//199 70//198 116//175
f 73//201 114//173 113//172
f 72//200 71//199 115//174
f 74//202 113//172 112//171
f 73//201 72//200 114//173
f 75//203 112//171 111//170
f 74//202 73//201 113//172
f 76//204 111//170 2//169
f 75//203 74//202 112//171
f 8//205 2//169 25//168
f 76//204 75//203 111//170
f 94//206 25//168 24//167
f 8//205 76//204 2//169
f 95//207 24//167 23//166
f 94//206 8//205 25//168
f 96//208 23//166 22//165
f 95//207 94//206 24//167
f 97//209 22//165 21//164
f 96//208 95//207 23//166
f 98//210 21//164 20//163
f 97//209 96//208 22//165
f 99//211 20//163 19//162
f 98//210 97//209 21//164
f 100//212 19//162 18//161
f 99//211 98//210 20//163
f 101//213 18//161 17//160
f 100//212 99//211 19//162
f 102//214 17//160 16//159
f 101//213 100//212 18//161
f 104//216 15//158 14//157
f 103//215 102//214 16//159
f 105//217 14//157 13//156
f 104//216 103//215 15//158
f 106//218 13//156 12//155
f 105//217 104//216 14//157
f 107//219 12//155 11//154
f 106//218 105//217 13//156
f 108//220 11//154 10//153
f 107//219 106//218 12//155
f 109//221 108//220 10//153
f 110//222 109//221 9//152
f 127//224 3//223 144//259
f 126//225 127//224 143//258
f 125//226 126//225 142//257
f 124//227 125//226 141//256
f 123//228 124//227 140//255
f 122//229 123//228 139//254
f 121//230 122//229 138//253
f 120//231 121//230 137//252
f 119//232 120//231 136//251
f 118//233 119//232 135//250
f 117//234 118//233 134//249
f 116//235 117//234 133//248
f 115//236 116//235 132//247
f 114//237 115//236 131//246
f 113//238 114//237 130//245
f 112//239 113//238 129//244
f 111//240 112//239 128//243
f 2//241 111//240 1//242
f 128//243 1//242 111//240
f 129//244 128//243 112//239
f 130//245 129//244 113//238
f 131//246 130//245 114//237
f 132//247 131//246 115//236
f 133//248 132//247 116//235
f 134//249 133//248 117//234
f 135//250 134//249 118//233
f 136//251 135//250 119//232
f 137//252 136//251 120//231
f 138//253 137//252 121//230
f 139//254 138//253 122//229
f 140//255 139//254 123//228
f 141//256 140//255 124//227
f 142//257 141//256 125//226
f 143//258 142//257 126//225
f 144//259 143//258 127//224
f 4//260 144//259 3//223
f 129//263 1//261 128//262
f 130//264 1//261 129//263
f 131//265 1//261 130//264
f 132//266 1//261 131//265
f 133//267 1//261 132//266
f 134//268 1//261 133//267
f 135//269 1//261 134//268
f 136//270 1//261 135//269
f 137//271 1//261 136//270
f 138//272 1//261 137//271
f 139//273 1//261 138//272
f 140//274 1//261 139//273
f 141//275 1//261 140//274
f 142//276 1//261 141//275
f 143//277 1//261 142//276
f 144//278 1//261 143//277
f 4//279 1//261 144//278
f 26//280 1//261 4//279
f 27//281 1//261 26//280
f 28//282 1//261 27//281
f 29//283 1//261 28//282
f 30//284 1//261 29//283
f 31//285 1//261 30//284
f 32//286 1//261 31//285
f 33//287 1//261 32//286
f 34//288 1//261 33//287
f 35//289 1//261 34//288
f 36//290 1//261 35//289
f 37//291 1//261 36//290
f 38//292 1//261 37//291
f 39//293 1//261 38//292
f 40//294 1//261 39//293
f 41//295 1//261 40//294
f 42//296 1//261 41//295
