# CAD Exchanger 3.10.2 (cadexchanger.com)
# Object Count: 1
mtllib LightCube.mtl
g Part2
v 0.000000 0.300000 -0.095000
v 0.000000 0.000000 -0.095000
v 0.000000 0.000000 0.095000
v 0.000000 0.300000 0.095000
v 0.100000 0.000000 0.100000
v 0.100000 0.000000 -0.100000
v 0.100000 0.400000 -0.100000
v 0.100000 0.400000 0.100000
v -0.100000 0.000000 -0.100000
v -0.100000 0.400000 -0.100000
v -0.100000 0.000000 0.100000
v -0.100000 0.400000 0.100000
v -0.016497 0.000000 0.093557
v -0.032492 0.000000 0.089271
v -0.047500 0.000000 0.082272
v -0.061065 0.000000 0.072774
v -0.072774 0.000000 0.061065
v -0.082272 0.000000 0.047500
v -0.089271 0.000000 0.032492
v -0.093557 0.000000 0.016497
v -0.095000 0.000000 0.000000
v -0.093557 0.000000 -0.016497
v -0.089271 0.000000 -0.032492
v -0.082272 0.000000 -0.047500
v -0.072774 0.000000 -0.061065
v -0.061065 0.000000 -0.072774
v -0.047500 0.000000 -0.082272
v -0.032492 0.000000 -0.089271
v -0.016497 0.000000 -0.093557
v -0.016497 0.300000 0.093557
v -0.032492 0.300000 0.089271
v -0.047500 0.300000 0.082272
v -0.061065 0.300000 0.072774
v -0.072774 0.300000 0.061065
v -0.082272 0.300000 0.047500
v -0.089271 0.300000 0.032492
v -0.093557 0.300000 0.016497
v -0.095000 0.300000 0.000000
v -0.093557 0.300000 -0.016497
v -0.089271 0.300000 -0.032492
v -0.082272 0.300000 -0.047500
v -0.072774 0.300000 -0.061065
v -0.061065 0.300000 -0.072774
v -0.047500 0.300000 -0.082272
v -0.032492 0.300000 -0.089271
v -0.016497 0.300000 -0.093557
v 0.016497 0.000000 -0.093557
v 0.032492 0.000000 -0.089271
v 0.047500 0.000000 -0.082272
v 0.061065 0.000000 -0.072774
v 0.072774 0.000000 -0.061065
v 0.082272 0.000000 -0.047500
v 0.089271 0.000000 -0.032492
v 0.093557 0.000000 -0.016497
v 0.095000 0.000000 -0.000000
v 0.093557 0.000000 0.016497
v 0.089271 0.000000 0.032492
v 0.082272 0.000000 0.047500
v 0.072774 0.000000 0.061065
v 0.061065 0.000000 0.072774
v 0.047500 0.000000 0.082272
v 0.032492 0.000000 0.089271
v 0.016497 0.000000 0.093557
v 0.016497 0.300000 -0.093557
v 0.032492 0.300000 -0.089271
v 0.047500 0.300000 -0.082272
v 0.061065 0.300000 -0.072774
v 0.072774 0.300000 -0.061065
v 0.082272 0.300000 -0.047500
v 0.089271 0.300000 -0.032492
v 0.093557 0.300000 -0.016497
v 0.095000 0.300000 -0.000000
v 0.093557 0.300000 0.016497
v 0.089271 0.300000 0.032492
v 0.082272 0.300000 0.047500
v 0.072774 0.300000 0.061065
v 0.061065 0.300000 0.072774
v 0.047500 0.300000 0.082272
v 0.032492 0.300000 0.089271
v 0.016497 0.300000 0.093557
vn 0.000000 -0.000000 1.000000
vn 0.000000 -0.000000 1.000000
vn 0.173648 -0.000000 0.984808
vn 0.342020 -0.000000 0.939693
vn 0.500000 -0.000000 0.866025
vn 0.642788 -0.000000 0.766044
vn 0.766044 -0.000000 0.642788
vn 0.866025 -0.000000 0.500000
vn 0.939693 -0.000000 0.342020
vn 0.984808 -0.000000 0.173648
vn 1.000000 -0.000000 -0.000000
vn 0.984808 -0.000000 -0.173648
vn 0.939693 -0.000000 -0.342020
vn 0.866025 -0.000000 -0.500000
vn 0.766044 -0.000000 -0.642788
vn 0.642788 -0.000000 -0.766044
vn 0.500000 -0.000000 -0.866025
vn 0.342020 -0.000000 -0.939693
vn 0.173648 -0.000000 -0.984808
vn -0.000000 -0.000000 -1.000000
vn -0.000000 -0.000000 -1.000000
vn 0.173648 -0.000000 -0.984808
vn 0.342020 -0.000000 -0.939693
vn 0.500000 -0.000000 -0.866025
vn 0.642788 -0.000000 -0.766044
vn 0.766044 -0.000000 -0.642788
vn 0.866025 -0.000000 -0.500000
vn 0.939693 -0.000000 -0.342020
vn 0.984808 -0.000000 -0.173648
vn 1.000000 -0.000000 -0.000000
vn 0.984808 -0.000000 0.173648
vn 0.939693 -0.000000 0.342020
vn 0.866025 -0.000000 0.500000
vn 0.766044 -0.000000 0.642788
vn 0.642788 -0.000000 0.766044
vn 0.500000 -0.000000 0.866025
vn 0.342020 -0.000000 0.939693
vn 0.173648 -0.000000 0.984808
vn 1.000000 -0.000000 -0.000000
vn 1.000000 -0.000000 -0.000000
vn 1.000000 -0.000000 -0.000000
vn 1.000000 -0.000000 -0.000000
vn -0.000000 -0.000000 -1.000000
vn -0.000000 -0.000000 -1.000000
vn -0.000000 -0.000000 -1.000000
vn -0.000000 -0.000000 -1.000000
vn -1.000000 -0.000000 -0.000000
vn -1.000000 -0.000000 -0.000000
vn -1.000000 -0.000000 -0.000000
vn -1.000000 -0.000000 -0.000000
vn -0.000000 -0.000000 1.000000
vn -0.000000 -0.000000 1.000000
vn -0.000000 -0.000000 1.000000
vn -0.000000 -0.000000 1.000000
vn 0.000000 1.000000 0.000000
vn 0.000000 1.000000 0.000000
vn 0.000000 1.000000 0.000000
vn 0.000000 1.000000 0.000000
vn -0.000000 -1.000000 -0.000000
vn -0.000000 -1.000000 -0.000000
vn -0.000000 -1.000000 -0.000000
vn -0.000000 -1.000000 -0.000000
vn -0.000000 -1.000000 -0.000000
vn -0.000000 -1.000000 -0.000000
vn -0.000000 -1.000000 -0.000000
vn -0.000000 -1.000000 -0.000000
vn -0.000000 -1.000000 -0.000000
vn -0.000000 -1.000000 -0.000000
vn -0.000000 -1.000000 -0.000000
vn -0.000000 -1.000000 -0.000000
vn -0.000000 -1.000000 -0.000000
vn -0.000000 -1.000000 -0.000000
vn -0.000000 -1.000000 -0.000000
vn -0.000000 -1.000000 -0.000000
vn -0.000000 -1.000000 -0.000000
vn -0.000000 -1.000000 -0.000000
vn -0.000000 -1.000000 -0.000000
vn -0.000000 -1.000000 -0.000000
vn -0.000000 -1.000000 -0.000000
vn -0.000000 -1.000000 -0.000000
vn -0.000000 -1.000000 -0.000000
vn -0.000000 -1.000000 -0.000000
vn -0.000000 -1.000000 -0.000000
vn -0.000000 -1.000000 -0.000000
vn -0.000000 -1.000000 -0.000000
vn -0.000000 -1.000000 -0.000000
vn -0.000000 -1.000000 -0.000000
vn -0.000000 -1.000000 -0.000000
vn -0.000000 -1.000000 -0.000000
vn -0.000000 -1.000000 -0.000000
vn -0.000000 -1.000000 -0.000000
vn -0.000000 -1.000000 -0.000000
vn -0.000000 -1.000000 -0.000000
vn -0.000000 -1.000000 -0.000000
vn -0.000000 -1.000000 -0.000000
vn -0.000000 -1.000000 -0.000000
vn -0.000000 -1.000000 -0.000000
vn -0.000000 -1.000000 -0.000000
vn -0.000000 -0.000000 -1.000000
vn -0.173648 -0.000000 -0.984808
vn -0.342020 -0.000000 -0.939693
vn -0.500000 -0.000000 -0.866025
vn -0.642788 -0.000000 -0.766044
vn -0.766044 -0.000000 -0.642788
vn -0.866025 -0.000000 -0.500000
vn -0.939693 -0.000000 -0.342020
vn -0.984808 -0.000000 -0.173648
vn -1.000000 -0.000000 0.000000
vn -0.984808 -0.000000 0.173648
vn -0.939693 -0.000000 0.342020
vn -0.866025 -0.000000 0.500000
vn -0.766044 -0.000000 0.642788
vn -0.642788 -0.000000 0.766044
vn -0.500000 -0.000000 0.866025
vn -0.342020 -0.000000 0.939693
vn -0.173648 -0.000000 0.984808
vn -0.000000 -0.000000 1.000000
vn -0.000000 -0.000000 1.000000
vn -0.173648 -0.000000 0.984808
vn -0.342020 -0.000000 0.939693
vn -0.500000 -0.000000 0.866025
vn -0.642788 -0.000000 0.766044
vn -0.766044 -0.000000 0.642788
vn -0.866025 -0.000000 0.500000
vn -0.939693 -0.000000 0.342020
vn -0.984808 -0.000000 0.173648
vn -1.000000 -0.000000 0.000000
vn -0.984808 -0.000000 -0.173648
vn -0.939693 -0.000000 -0.342020
vn -0.866025 -0.000000 -0.500000
vn -0.766044 -0.000000 -0.642788
vn -0.642788 -0.000000 -0.766044
vn -0.500000 -0.000000 -0.866025
vn -0.342020 -0.000000 -0.939693
vn -0.173648 -0.000000 -0.984808
vn -0.000000 -0.000000 -1.000000
vn 0.000000 -1.000000 0.000000
vn 0.000000 -1.000000 0.000000
vn 0.000000 -1.000000 0.000000
vn 0.000000 -1.000000 0.000000
vn 0.000000 -1.000000 0.000000
vn 0.000000 -1.000000 0.000000
vn 0.000000 -1.000000 0.000000
vn 0.000000 -1.000000 0.000000
vn 0.000000 -1.000000 0.000000
vn 0.000000 -1.000000 0.000000
vn 0.000000 -1.000000 0.000000
vn 0.000000 -1.000000 0.000000
vn 0.000000 -1.000000 0.000000
vn 0.000000 -1.000000 0.000000
vn 0.000000 -1.000000 0.000000
vn 0.000000 -1.000000 0.000000
vn 0.000000 -1.000000 0.000000
vn 0.000000 -1.000000 0.000000
vn 0.000000 -1.000000 0.000000
vn 0.000000 -1.000000 0.000000
vn 0.000000 -1.000000 0.000000
vn 0.000000 -1.000000 0.000000
vn 0.000000 -1.000000 0.000000
vn 0.000000 -1.000000 0.000000
vn 0.000000 -1.000000 0.000000
vn 0.000000 -1.000000 0.000000
vn 0.000000 -1.000000 0.000000
vn 0.000000 -1.000000 0.000000
vn 0.000000 -1.000000 0.000000
vn 0.000000 -1.000000 0.000000
vn 0.000000 -1.000000 0.000000
vn 0.000000 -1.000000 0.000000
vn 0.000000 -1.000000 0.000000
vn 0.000000 -1.000000 0.000000
vn 0.000000 -1.000000 0.000000
vn 0.000000 -1.000000 0.000000
usemtl Material_1
f 29//3 2//2 1//1
f 46//38 29//3 1//1
f 45//37 28//4 29//3
f 44//36 27//5 28//4
f 43//35 26//6 27//5
f 42//34 25//7 26//6
f 41//33 24//8 25//7
f 40//32 23//9 24//8
f 39//31 22//10 23//9
f 38//30 21//11 22//10
f 37//29 20//12 21//11
f 36//28 19//13 20//12
f 35//27 18//14 19//13
f 34//26 17//15 18//14
f 33//25 16//16 17//15
f 32//24 15//17 16//16
f 31//23 14//18 15//17
f 30//22 13//19 14//18
f 4//21 3//20 13//19
f 30//22 4//21 13//19
f 31//23 30//22 14//18
f 32//24 31//23 15//17
f 33//25 32//24 16//16
f 34//26 33//25 17//15
f 35//27 34//26 18//14
f 36//28 35//27 19//13
f 37//29 36//28 20//12
f 38//30 37//29 21//11
f 39//31 38//30 22//10
f 40//32 39//31 23//9
f 41//33 40//32 24//8
f 42//34 41//33 25//7
f 43//35 42//34 26//6
f 44//36 43//35 27//5
f 45//37 44//36 28//4
f 46//38 45//37 29//3
f 7//41 8//40 5//39
f 6//42 7//41 5//39
f 10//45 7//44 6//43
f 9//46 10//45 6//43
f 12//49 10//48 9//47
f 11//50 12//49 9//47
f 8//53 12//52 11//51
f 5//54 8//53 11//51
f 10//57 8//55 7//56
f 12//58 8//55 10//57
f 11//97 13//60 3//59
f 11//97 14//61 13//60
f 11//97 15//62 14//61
f 11//97 16//63 15//62
f 11//97 17//64 16//63
f 20//67 19//66 11//97
f 21//68 20//67 11//97
f 9//96 23//70 22//69
f 9//96 24//71 23//70
f 27//74 26//73 9//96
f 28//75 27//74 9//96
f 29//76 28//75 9//96
f 6//95 47//78 2//77
f 6//95 48//79 47//78
f 51//82 50//81 6//95
f 52//83 51//82 6//95
f 53//84 52//83 6//95
f 54//85 53//84 6//95
f 5//98 57//88 56//87
f 5//98 58//89 57//88
f 60//91 59//90 5//98
f 61//92 60//91 5//98
f 62//93 61//92 5//98
f 63//94 5//98 3//59
f 63//94 62//93 5//98
f 6//95 49//80 48//79
f 6//95 50//81 49//80
f 9//96 25//72 24//71
f 9//96 26//73 25//72
f 2//77 29//76 9//96
f 6//95 2//77 9//96
f 11//97 18//65 17//64
f 11//97 19//66 18//65
f 9//96 22//69 21//68
f 9//96 21//68 11//97
f 5//98 59//90 58//89
f 11//97 3//59 5//98
f 5//98 56//87 55//86
f 55//86 54//85 6//95
f 5//98 55//86 6//95
f 63//100 3//99 80//135
f 62//101 63//100 79//134
f 61//102 62//101 78//133
f 60//103 61//102 77//132
f 59//104 60//103 76//131
f 58//105 59//104 75//130
f 57//106 58//105 74//129
f 56//107 57//106 73//128
f 55//108 56//107 72//127
f 54//109 55//108 71//126
f 53//110 54//109 70//125
f 52//111 53//110 69//124
f 51//112 52//111 68//123
f 50//113 51//112 67//122
f 49//114 50//113 66//121
f 48//115 49//114 65//120
f 47//116 48//115 64//119
f 2//117 47//116 1//118
f 64//119 1//118 47//116
f 65//120 64//119 48//115
f 66//121 65//120 49//114
f 67//122 66//121 50//113
f 68//123 67//122 51//112
f 69//124 68//123 52//111
f 70//125 69//124 53//110
f 71//126 70//125 54//109
f 72//127 71//126 55//108
f 73//128 72//127 56//107
f 74//129 73//128 57//106
f 75//130 74//129 58//105
f 76//131 75//130 59//104
f 77//132 76//131 60//103
f 78//133 77//132 61//102
f 79//134 78//133 62//101
f 80//135 79//134 63//100
f 4//136 80//135 3//99
f 65//139 1//137 64//138
f 66//140 1//137 65//139
f 67//141 1//137 66//140
f 68//142 1//137 67//141
f 69//143 1//137 68//142
f 70//144 1//137 69//143
f 71//145 1//137 70//144
f 72//146 1//137 71//145
f 73//147 1//137 72//146
f 74//148 1//137 73//147
f 75//149 1//137 74//148
f 76//150 1//137 75//149
f 77//151 1//137 76//150
f 78//152 1//137 77//151
f 79//153 1//137 78//152
f 80//154 1//137 79//153
f 4//155 1//137 80//154
f 30//156 1//137 4//155
f 31//157 1//137 30//156
f 32//158 1//137 31//157
f 33//159 1//137 32//158
f 34//160 1//137 33//159
f 35//161 1//137 34//160
f 36//162 1//137 35//161
f 37//163 1//137 36//162
f 38//164 1//137 37//163
f 39//165 1//137 38//164
f 40//166 1//137 39//165
f 41//167 1//137 40//166
f 42//168 1//137 41//167
f 43//169 1//137 42//168
f 44//170 1//137 43//169
f 45//171 1//137 44//170
f 46//172 1//137 45//171
